<?xml version="1.0" standalone="no"?>
<!DOCTYPE svg PUBLIC "-//W3C//DTD SVG 20010904//EN"
 "http://www.w3.org/TR/2001/REC-SVG-20010904/DTD/svg10.dtd">
<svg version="1.0" xmlns="http://www.w3.org/2000/svg"
 width="100.000000pt" height="120.000000pt" viewBox="0 0 100.000000 120.000000"
 preserveAspectRatio="xMidYMid meet">

<g transform="translate(0.000000,120.000000) scale(0.100000,-0.100000)"
fill="#000000" stroke="none">
<path d="M420 1159 c-84 -14 -193 -72 -260 -139 -189 -189 -185 -498 9 -683
193 -184 483 -182 673 4 97 96 159 264 143 388 -33 244 -208 412 -450 434 -33
3 -85 1 -115 -4z m175 -95 c153 -39 259 -150 291 -305 28 -136 -17 -272 -123
-369 -76 -70 -144 -94 -263 -95 -86 0 -101 3 -160 31 -83 40 -151 107 -192
192 -31 62 -33 74 -33 167 0 89 3 106 28 157 55 113 156 196 272 224 69 17
111 17 180 -2z"/>
<path d="M324 848 c-40 -19 -56 -86 -34 -143 14 -37 71 -59 116 -45 19 6 41
21 49 33 30 42 10 145 -30 161 -24 9 -77 6 -101 -6z m76 -28 c25 -14 35 -63
18 -97 -18 -39 -67 -40 -85 -2 -17 36 -6 88 21 99 28 11 25 11 46 0z"/>
<path d="M510 750 c0 -103 -2 -112 -20 -117 -34 -9 -24 -35 12 -31 48 5 59 34
56 153 -3 95 -4 100 -25 103 -23 3 -23 2 -23 -108z"/>
<path d="M658 800 c-31 -16 -59 -34 -63 -39 -5 -10 65 -51 113 -65 44 -14 23
21 -25 41 l-48 20 48 21 c27 12 47 28 47 36 0 21 -5 20 -72 -14z"/>
<path d="M569 554 c-7 -9 -16 -37 -19 -63 -5 -45 -5 -46 -45 -49 -61 -5 -113
15 -166 65 -52 48 -72 52 -44 9 25 -38 100 -84 159 -96 54 -11 125 -2 168 21
34 18 98 81 98 95 0 20 -13 17 -28 -7 -14 -21 -14 -21 -33 10 -21 35 -67 43
-90 15z m69 -38 c2 -16 -1 -33 -7 -39 -8 -8 -11 -2 -11 21 0 44 -18 40 -22 -5
-4 -46 -28 -58 -28 -13 0 45 17 72 43 68 16 -2 23 -11 25 -32z"/>
<path d="M50 70 c0 -27 5 -50 10 -50 6 0 10 7 10 17 0 15 1 15 18 0 27 -25 50
-22 27 3 -15 17 -16 24 -6 46 16 36 4 44 -19 14 l-20 -25 0 23 c0 12 -4 22
-10 22 -5 0 -10 -22 -10 -50z"/>
<path d="M156 104 c-19 -18 -21 -55 -4 -72 19 -19 66 -15 78 7 14 28 13 38
-10 61 -24 24 -43 25 -64 4z m54 -40 c0 -17 -6 -24 -20 -24 -25 0 -36 25 -20
45 16 20 40 7 40 -21z"/>
<path d="M250 70 c0 -27 5 -50 10 -50 6 0 10 6 10 13 0 8 11 19 25 25 30 14
32 37 6 52 -41 21 -51 13 -51 -40z m40 15 c0 -8 -4 -15 -10 -15 -5 0 -10 7
-10 15 0 8 5 15 10 15 6 0 10 -7 10 -15z"/>
<path d="M330 70 c0 -27 5 -50 10 -50 6 0 10 23 10 50 0 28 -4 50 -10 50 -5 0
-10 -22 -10 -50z"/>
<path d="M404 95 c-24 -36 -6 -75 34 -75 51 0 71 50 34 83 -26 24 -49 21 -68
-8z m63 -39 c-4 -9 -16 -16 -27 -16 -15 0 -20 7 -20 24 0 13 6 26 13 29 18 7
41 -19 34 -37z"/>
<path d="M500 70 c0 -27 5 -50 10 -50 6 0 10 7 10 15 0 19 16 19 24 0 3 -8 12
-15 21 -15 19 0 19 9 -2 32 -15 17 -15 19 2 38 26 29 9 38 -20 10 l-25 -23 0
21 c0 12 -4 22 -10 22 -5 0 -10 -22 -10 -50z"/>
<path d="M650 80 c0 -29 -4 -40 -15 -40 -8 0 -15 -5 -15 -11 0 -6 10 -9 23 -7
19 3 22 10 25 51 2 28 -1 47 -7 47 -6 0 -11 -18 -11 -40z"/>
<path d="M680 83 c0 -51 11 -65 46 -61 27 3 29 6 32 51 4 55 -15 65 -20 10 -4
-50 -26 -55 -30 -7 -4 52 -28 58 -28 7z"/>
<path d="M787 102 c-36 -39 -12 -86 40 -80 20 2 29 9 31 26 3 17 -1 22 -20 21
-13 0 -17 -3 -10 -6 19 -7 14 -23 -7 -23 -10 0 -22 7 -25 16 -9 23 13 46 37
38 14 -4 18 -2 15 7 -7 22 -42 22 -61 1z"/>
<path d="M884 75 c-9 -25 -13 -49 -9 -53 4 -4 10 -1 12 6 6 15 35 16 51 0 6
-6 14 -9 17 -6 7 7 -34 98 -45 98 -4 0 -16 -20 -26 -45z m36 -5 c0 -5 -5 -10
-11 -10 -5 0 -7 5 -4 10 3 6 8 10 11 10 2 0 4 -4 4 -10z"/>
<path d="M970 30 c0 -5 5 -10 10 -10 6 0 10 5 10 10 0 6 -4 10 -10 10 -5 0
-10 -4 -10 -10z"/>
</g>
</svg>
